<?xml version="1.0" encoding="UTF-8"?>
<svg data-bbox="0 0 999.997 806.238" viewBox="0 0 1000 806.24" height="283.901" width="352.235" xmlns="http://www.w3.org/2000/svg" data-type="shape">
    <g>
        <path d="M466.99 689.59c1.772-4.3 0-8.92-3.858-10.373-3.606-1.456-8.097.76-9.869 5.06-1.519 4.302 0 8.983 3.859 10.439 3.922 1.453 8.35-.823 9.869-5.124m-26.893-6.276c0-22.332-25.115-43.145-67.5-45.232-38.59-1.898-103.687 18.219-103.687 71.232 0 26.128 23.914 35.048 40.299 35.048 16.448 0 31.377-10.692 31.377-21.256 0-10.945-6.262-10.628-8.033-10.628-4.493 0-8.667 6.453-5.693 14.233 1.77 4.934-2.974 15.12-18.22 15.12-10.755 0-25.684-8.604-25.684-32.517 0-23.787 26.885-67.5 89.64-67.5 22.395 0 48.649 12.147 48.649 41.5 0 17.144-17.018 41.69-42.701 41.69 0 0 6.262-33.72 23.026-54.722 1.456-1.708-.632-3.29-2.973-1.708-53.52 34.035-46.623 134.178-107.292 134.178-5.947 0-28.657-1.392-28.657-18.978 0 0-1.202-4.112 4.176-7.466 2.656-1.58 4.426-4.554 4.426-7.653 0-5.252-4.426-9.426-9.55-9.426-5.062 0-7.467 4.426-9.238 9.426-1.517 4.237-2.086 37.26 38.843 37.576 30.493.38 74.396-20.75 85.15-76.166 0 0 63.642-6.77 63.642-46.75m268.61 62.172c-1.771 6.643-5.062 10.312-8.667 11.83-3.29 1.518-5.377-.886-3.859-2.91 1.454-2.024 3.859-6.326 3.543-9.3-.253-3.921-3.86-6.2-3.86-6.2s-2.087-1.2-.632-3.414l7.781-12.716s2.72-5.062 3.606-1.076c1.202 4.365 4.176 17.08 2.088 23.786m-45.423-19.8c1.203-2.594 3.923-9.742 11.64-17.397 2.72-2.595 5.379-4.872 8.415-5.44 3.29-.57 3.542 2.91 3.29 5.06-.633 2.15-1.836 6.01-4.809 9.427-2.72 3.416-6.263 7.337-9.236 9.236-3.036 1.77-5.377 2.973-7.781 2.973-2.088 0-2.72-1.267-1.519-3.86m58.581-40.424c-6.01 1.772-10.754 14.93-14.044 20.876-4.808 8.73-16.765 25.685-16.765 25.685s-14.044 23.787-26.885 22.142c-12.843-1.582-3.29-19.675-3.29-19.675 21.256-4.492 30.175-14.93 33.212-20.813 3.29-5.756.57-14.676-8.413-14.044-.887 0-2.088.126-3.29.316-.886.126-1.771.317-2.34.506-1.835.443-3.607 1.014-5.694 1.771-2.72 1.076-5.061 2.341-6.896 3.607a21 21 0 0 0-2.657 1.77c-5.694 3.987-12.59 13.728-15.879 13.16-3.542-.633.633-7.34 2.72-11.83 1.772-4.492 2.088-7.214-1.77-7.339-3.923-.063-9.616 4.175-12.274 6.327l-6.01 5.502 5.378-9.298h-14.93c-13.158 31.568-22.964 39.728-22.964 39.728s-7.464 8.034-10.755 7.528c-3.605-.57-.632-7.464-.632-7.464l17.65-39.792h-14.36l-12.526 26.442s-9.87 20.94-18.853 20.814c-4.174-.063-.252-8.92-.252-8.92l17.27-38.779H562.32s-12.59 25.81-16.764 32.896c-4.176 7.148-14.297 15.879-18.22 14.803-1.455-.443-2.404-1.328-2.404-2.278-.57-1.392.316-3.036.316-3.036l17.017-37.957h11.072l2.087-4.619-11.07.191 10.5-23.724H540.18l-11.07 23.724h-7.468l-2.086 4.428h7.465l-8.604 19.295c-2.404 4.808-21.256 30.429-33.781 28.278-12.59-2.025-9.87-12.716-9.3-18.22 1.203-7.212 9.3-21.129 11.387-24.102 1.772-2.974 12.842-15.563 18.536-10.88 4.745 4.048 0 10.5 0 10.5s-8.983 5.82-5.694 11.957c3.29 6.643 11.07 1.139 12.843-1.708 6.262-9.236 6.01-28.659-14.613-24.672-23.598 4.49-34.984 31.187-34.984 31.187s-12.527 22.838-17.651 22.965c-5.63.57-2.973-6.263-2.973-6.263l18.536-43.652h-13.728s-4.492 9.616-12.59 27.52c-8.033 17.84-23.28 26.38-23.28 26.38-.885 3.986 3.606 2.15 3.606 2.15s6.58-3.732 12.21-9.615c0 0 .632-.823.632-.38 0 0-1.834 12.653 9.236 12.843.886 0 1.772-.127 2.974-.316 1.202-.127 3.289-.95 5.377-2.214.633-.253.95-.506 1.519-.76 5.946-3.796 10.438-10.88 11.324-12.02 1.518-1.96.632-2.846 3.605 3.354 2.973 6.958 8.984 11.829 19.739 11.956 10.753.189 20.622-7.654 24.48-10.627l2.974-2.468c0 14.044 11.387 13.41 11.387 13.41 8.352.127 20.306-12.018 22.396-14.043 0-.063 0-.19.316-.316v-.063s-2.404 11.767 5.377 13.664c6.263 1.455 17.903-6.516 23.913-13.412 0 0 0-.253.254-.316v.19s-2.974 7.402 1.833 12.146c5.061 5.124 17.904-2.847 27.773-13.348 0 0 .316-.253.316.127l-6.01 13.853h14.677l12.841-28.467s2.658-7.845 6.58-10.881c4.428-3.48 1.455-1.076 3.859 3.163 4.808 7.718 13.158 2.34 13.158 2.34-9.3 22.9-3.289 31 7.466 34.289 0 0 12.272 4.933 29.542-12.336 0 0-1.454 5.44 2.151 9.047 3.29 2.72 9.805 5.693 18.22 2.909 10.755-3.416 16.132-16.448 17.333-25.052.886-8.54-3.289-19.8-3.289-19.8s-6.58-17.524-.316-21.383c7.464-4.681 7.781-6.706 6.263-8.413-.57-.887-2.404-.633-2.974-.444m-436.233-96.152c2.402-2.72 7.148-7.4 8.982-9.741 2.658-4.24 5.694-7.467 6.832-8.413 6.58-5.252 10.186-5.632 12.274-8.606.885-1.453 13.728-20.685 18.218-28.466 4.492-7.339 14.93-21.763 12.274-24.04-1.52-1.203-20.307 18.03-32.896 31.504-4.492 4.618-7.15 9.046-8.984 11.133 0 0-5.314 9.048-8.351 12.843-2.973 3.796-10.121 14.55-13.41 19.169-.886 1.581-3.923 8.35-9.554 15.373-2.72 3.542-5.693 8.096-11.07 15.119-7.465 9.427-12.842 17.144-11.64 18.156.569.57 11.64-12.463 22.963-26.444 4.808-5.883 10.186-11.893 14.36-17.587m298.482-71.858c-3.858-9.68-23.026-44.536-25.114-48.143-1.202-1.96-4.744-7.97-9.552-15.182-4.176-6.707-7.782-13.982-9.87-17.144-3.858-6.327-11.324-20.37-15.246-26.19-4.175-5.82-9.236-18.662-11.324-16.574-2.087 1.96 5.946 21.254 9.553 33.464 3.605 12.21.885 17.208-1.203 20.75-2.086 3.416-2.086 5.694 0 11.83 1.772 5.568 8.667 37.893 10.755 44.6s4.176 7.085 5.377 9.68c3.923 10.057 9.87 10.5 12.843 11.322 8.097 2.53 8.983 13.665 14.36 23.66 4.808 9.363 9.553 17.777 13.728 27.899 4.492 10.185 26.887 65.413 30.808 73.826 1.203 3.037 11.957 3.037 10.755 0-2.72-6.073-8.983-21.32-12.588-36.501-2.342-9.933 6.894-2.91.948-18.727-2.72-7.21-8.098-14.486-10.755-17.396-3.036-2.91-6.01-15.436-8.413-21.004-2.404-5.502-1.203-5.756-5.947-18.978-3.605-9.552 6.579-6.39.885-21.192m127.277 90.502c-2.088-5.44-11.07-19.168-14.044-23.533-2.657-4.365-7.465-14.044-12.842-20.181-4.808-5.378-.886-6.895-5.694-11.64-2.973-2.783-12.209-11.008-14.297-12.716-2.15-1.77-9.616-8.476-14.107-12.272-4.176-3.67-14.613-10.819-14.298-15.436.317-4.682-2.087-13.665-5.376-16.639-2.72-2.15-9.87-14.044-18.536-20.938-4.176-3.607-13.475-13.032-20.307-21.256-6.58-7.846-11.64-14.994-13.16-13.982-2.086 1.455 7.782 15.247 8.667 16.891 1.203 1.519 12.527 21.256 13.73 26.444 1.2 5.25 22.457 41.12 26.885 52.19 2.72 6.516 17.333 15.183 23.343 25.368 5.631 9.363 7.15 7.466 9.552 7.592 5.378.19 17.02 12.906 19.423 16.384 2.404 3.543 21.508 22.586 26.253 27.267 2.151 2.024 17.334 26.506 19.484 24.735 2.026-1.771-6.009-13.664-7.212-16.258-.885-2.594-5.377-6.453-7.464-12.02m20.623-30.922c-1.201-2.088-10.437-15.499-13.728-19.864-6.01-7.528-.632-10.375-3.605-14.994-1.519-2.024-8.983-11.07-17.651-20.117-4.427-4.428-9.552-8.793-13.727-12.653-7.149-6.199-12.273-10.753-13.16-9.995-1.2 1.203 2.974 6.137 4.81 8.413 1.453 2.152 4.49 6.138 8.033 10.44 6.01 7.084.317 12.4 6.01 18.092 1.202.886 16.702 18.41 20.623 21.636 5.631 5.06 26 29.29 27.456 30.682 2.404 2.213 6.579 7.085 7.212 6.2.886-.886-1.202-3.48-2.404-5.504-1.202-2.088-8.35-10.059-9.869-12.336m-369.594-10.97c-2.088 4.998-1.772 11.324-2.404 13.411-.885 1.961-10.438 22.521-12.842 27.076-1.771 2.848-1.202 4.05-1.771 5.63-.885 1.962.253 2.531 1.77 1.077 1.773-1.835 11.958-17.46 15.247-19.36 2.974-1.96 5.947-4.807 6.263-11.575.633-6.707 5.061-8.541 8.35-12.527 3.29-3.922 7.782-9.173 10.186-14.613 2.404-5.693 5.061-1.392 10.438-9.805 5.124-8.54 17.018-29.48 19.738-33.53 2.404-4.048.57-9.931.316-14.74 0-2.593.253-8.793 1.772-15.562 1.517-5.947 4.174-12.019 5.693-15.941 1.201-2.467 4.744-9.996 4.492-12.97 0-.569-1.203-1.453-2.404-.378-5.061 5.186-15.816 23.596-19.739 25.684-9.236 4.492-13.158 15.182-15.814 19.358-2.088 3.163-4.492 8.16-8.984 14.55-3.859 5.503-8.033 13.665-9.552 16.574-1.772 2.973-2.404 5.693.57 5.693 3.035 0 .631 4.808-2.974 10.06-2.088 3.036-7.15 17.903-8.35 21.888m-282.053 64.54L61.26 614.778l9.236-22.711-20.876 13.285L30.2 589.726l5.947 23.977-20.624 12.715 24.229 1.645 6.264 23.786 9.552-23.217zM24.797 562.1l14.044-20.813 23.914 6.516-15.816-19.043L60.35 508.2l-23.027 9.047-16.133-18.978 1.202 24.671L0 531.418l23.597 6.2zm11.356-182.795 20.623-14.17L76.515 380l-7.467-23.407 20.308-14.044-25.115-.316-7.465-23.597-8.097 23.47-24.166-.506 19.422 14.36zm31.37-86.048 23.028-10.187 16.386 18.6-2.657-24.418 22.394-9.996-24.166-4.934-3.29-24.736-12.273 21.446-23.596-5.124 16.448 17.966zm-46.015 177 17.65-17.967 22.394 11.008-11.64-21.636 17.017-17.65-24.481 4.491-12.273-21.76-3.29 24.418-23.913 4.112L24.8 445.838zM139.232 209.18l12.525 21.256 2.088-24.356 23.913-5.63-22.964-9.552 1.771-24.799-16.132 18.853-22.395-9.68 12.843 20.75-16.132 18.6zm-43.03 463.02-17.903 16.954-22.143-11.514 10.755 22.395-17.903 16.385 24.165-3.1 10.503 22.204 5.06-24.545 24.482-2.973L91.71 696.24zm290.712-399.53c-6.579 0-13.159 6.39-17.65 11.514-5.06 6.325-13.727 18.347-14.93 27.013-.885 4.618 1.203 6.515 3.607 6.515 5.693 0 13.158-9.805 17.649-18.219 4.43-9.236 6.516-14.486 11.893-26.19.316-.632-.253-.632-.57-.632m558.722 401.141-22.077 11.515-17.967-17.333 4.49 24.101-21.507 11.577 24.481 3.227 4.808 24.547 10.755-22.27 23.913 3.416-17.65-16.637zm25.4-88.23-19.421 15.627-20.94-13.667 8.984 22.965-19.107 15.436 24.8-1.52 9.552 23.028 6.264-23.912 23.912-1.138-20.307-13.096zM796.541 276.314h-11.07c-6.265 13.286-11.325 24.547-17.02 37.136-2.086 4.302-4.174 11.514-2.973 15.879.57 2.467 3.86 3.036 6.58 2.15 8.35-2.973 14.044-10.122 19.105-17.84 0-.76 4.491-.189 4.175.38-5.693 11.45-18.218 23.027-30.176 22.711-3.605 0-7.464-2.213-9.552-5.25-1.202-1.582-1.772-2.974-2.404-4.872-.57-3.1-.57-6.579 0-9.868-6.58 4.87-12.842 10.88-20.876 12.589-3.606.57-8.098-.823-8.984-4.681-.632-3.038-.316-6.264.886-8.984a3587 3587 0 0 0 14.677-33.086c.253-.569 0-2.53-.633-2.784-.886-.76-3.29-.76-5.376.886-10.187 7.592-15.247 17.46-19.739 27.582-2.973 6.832-6.263 13.6-9.552 20.244h-14.613c1.77-4.05 4.174-9.553 5.946-13.917q0-.476 0 0c-5.946 5.947-13.728 12.652-21.509 14.74-2.973.821-5.947-.253-7.465-3.037-1.77-2.784-2.404-6.832-.886-10.439 0-.19 0-.19-.316 0-5.377 5.504-10.754 10.44-17.904 12.843-8.35 2.593-15.814-3.227-10.437-15.246 1.139-3.226 5.378-12.337 9.805-23.217-3.542 1.581-8.35 1.581-10.754.821-.253 0-.253 0-.253.254-3.29 15.246-12.272 29.226-26.316 35.806-6.896 3.29-14.36 4.175-21.194-.506-3.289-2.151-5.377-7.464-5.377-12.019-7.212 7.021-15.247 16.067-26 14.487-1.835-.38-2.973-1.835-3.923-3.29-2.34-4.176-.885-8.541.632-12.146 5.062-10.818 9.554-21.067 14.614-33.276.886-1.708-1.454-2.974-3.29-2.15-5.06 2.466-8.35 4.932-11.006 9.362-1.52 2.404-3.29 5.124-4.494 7.781-4.806 10.437-9.866 21.383-14.042 31.884h-14.93c6.515-14.867 12.842-29.353 19.42-44.157.57-1.328.254-3.29-.632-3.734-1.202-.694-3.605.444-5.06 1.33-3.606 2.404-6.58 5.693-8.984 9.805a75 75 0 0 0-6.58 12.653l-11.006 24.103h-14.36c1.2-3.163 3.859-9.49 5.693-12.653 0-.316-.317-.568-.317-.316-8.097 6.516-17.965 15.057-25.43 13.665-2.342-.316-4.746-2.467-5.378-4.681-.253-2.72-.253-5.251.316-7.592 0-.316-.316-.316-.57 0-6.325 5.946-11.955 10.944-19.737 12.842-4.808 1.075-8.984-1.898-10.438-5.25-2.088-3.796-2.404-9.806.885-16.702 1.772-4.365 3.86-8.984 6.58-12.778-1.519.821-4.808 1.074-6.896.821-2.087-.316-3.859-1.707-4.744-3.099-1.203-1.266-1.519-3.733-1.519-5.377.316-.317-.632-.317-1.201 0-4.493 3.48-6.264 7.653-8.35 12.272l-12.59 28.468h-14.93l5.377-12.083c.317-.189 0-.506-.254-.189-7.464 6.768-16.764 14.487-24.227 13.032-2.088-.38-4.494-2.467-4.808-4.556-.57-2.53-.254-5.313 0-7.717h-.57c-6.01 6.009-11.957 10.944-19.738 12.589-4.491 1.392-8.351-1.33-10.122-5.187-2.088-5.505-1.518-11.198.57-16.449 5.693-14.803 16.132-25.368 30.176-33.403 9.3-5.124 23.026-6.705 32.895-1.58-6.578 15.308-11.64 26.252-17.966 40.74-.57 1.392-1.202 3.795.317 4.68 1.201.507 2.403.507 3.29 0 7.78-3.858 14.929-13.157 20.306-23.849l9.87-21.761h14.043l-3.858 8.224c-.318.442-.318.696 0 .442 4.426-3.289 8.92-8.16 14.613-11.197 2.087-1.013 7.148-1.013 6.579 2.53 0 3.163-2.404 5.631-3.923 8.667-.885 1.96-1.77 4.428-1.453 5.758.568 1.39 2.402 2.213 4.49.569 2.088-1.33 3.859-2.467 5.694-4.112 3.542-3.353 8.034-6.516 12.842-9.11 9.806-4.618 23.28-7.529 33.15-1.266-6.896 15.31-11.958 26.76-18.536 41.247-1.203 2.466-.316 3.226.316 3.86.885.506 2.657.76 4.745-.443 5.376-2.277 14.93-12.907 18.852-21.193 3.543-7.718 6.832-15.31 10.753-23.976h14.36l-4.237 8.413.632.253c3.86-3.48 13.728-11.513 21.193-9.805 4.175.885 6.01 5.756 5.693 9.363 4.808-3.416 9.552-7.466 16.448-9.174 9.87-2.404 13.728 4.492 10.755 11.008-3.923 9.047-11.64 26.76-15.879 35.87-.569.949-.569 2.973 0 3.48.95.821 3.036 0 3.923-.507 4.744-4.176 7.464-6.896 11.324-12.336.885-9.553 6.263-18.347 13.475-25.684 7.464-8.477 19.42-14.993 31.06-11.133 4.176 1.264 6.897 5.44 7.782 9.488.57 2.213 1.202 3.289 1.202 5.757 5.946 4.364 14.043-2.784 17.333-8.16a150 150 0 0 0 2.341-6.328c3.607.253 10.185 0 14.36 0l-17.903 40.741c-1.2 2.404-1.518 3.734-1.518 5.631 0 1.453 1.772 1.77 3.606 1.453 4.744-.821 12.842-10.5 16.702-18.597 4.808-10.187 8.982-18.6 13.474-28.721h14.298c-5.63 13.664-12.21 28.152-16.702 38.78-1.202 2.213-2.404 4.426-1.772 7.464.57 1.392 2.658 1.076 3.543.569 6.327-3.605 17.08-15.561 20.94-22.964 3.859-8.793 6.58-15.31 10.755-23.85h14.929l-3.605 8.54c5.377-4.365 11.386-9.046 18.536-10.247 3.289-.443 7.464-.254 9.298 3.1 2.088 3.796.887 7.844-.948 11.45-3.86 9.299-8.604 19.422-12.842 28.467-.57 2.215-.886 4.303.632 5.188 2.404 1.392 12.526-4.997 17.904-16.448 4.49-10.121 7.464-16.068 11.64-25.875h-7.466l2.088-4.426h7.466l11.07-23.787h14.676l-10.501 23.787h11.07zm-579.921 98.31c-40.678-.317-40.044-33.34-38.527-37.578 1.456-4.997 4.176-9.426 9.236-9.426s9.237 4.176 9.237 9.426c0 3.1-1.456 6.074-4.176 7.655-5.377 3.353-4.174 7.465-4.174 7.465 0 17.587 22.394 18.979 28.404 18.979 60.92 0 54.089-100.144 107.546-134.179 2.403-1.645 4.173 0 2.72 1.644-16.765 21.004-23.028 54.786-23.028 54.786 26 0 43.017-24.547 43.017-41.69 0-29.29-26.316-41.5-49.026-41.5-62.44 0-89.58 43.714-89.58 67.5 0 23.914 15.247 32.518 26 32.518 15.184 0 19.992-10.187 17.904-15.12-2.974-7.782 1.202-14.234 5.946-14.234 1.835 0 8.098-.317 8.098 10.627 0 10.565-14.93 21.257-31.693 21.257-16.45 0-40.299-8.92-40.299-35.048 0-53.013 65.413-73.13 103.622-71.231 42.766 2.024 67.564 22.9 67.564 45.231 0 39.918-63.325 46.751-63.325 46.751-11.07 55.417-54.973 76.482-85.466 76.166M501.362 84.442c-229.768.126-415.63 186.243-415.63 415.82 0 62.565 16.448 132.976 46.053 190.733 53.457-49.85 193.898-208.257 210.03-226.73 24.482-27.962 34.92-10.122 48.079-25.81 7.148-8.604 11.386-11.893 14.36-13.601 5.061-2.973 10.754-10.187 13.728-12.273 2.973-2.15 9.236-10.755 14.36-15.12 5.061-4.302 15.246-10.818 25.369-19.422 9.868-8.666 27.203-28.783 45.737-28.783 22.395 0 31.632 15.056 33.467 16.89 1.77 1.772 15.498 13.855 17.586 16.196 2.72 2.72 17.334 14.297 25.115 14.297 8.097 0 13.728 8.667 17.967 12.906 9.552 8.666 48.394 49.597 61.237 58.264 5.693 3.92 11.006 3.226 15.498 6.516 4.24 3.226 6.327 5.313 8.984 6.073 2.404.696 10.754-1.392 20.307 10.69 4.492 3.1 5.693 3.607 5.693 3.607s13.412 12.019 18.22 20.496c4.175 7.339 102.8 138.29 138.037 185.168 32.896-59.34 51.684-127.6 51.684-200.224 0-229.703-186.431-415.692-415.881-415.692m-16.74 188.229c-6.263 0-13.16 6.39-17.65 11.513-5.061 6.325-13.412 18.347-14.93 27.013-.886 4.618 1.202 6.515 3.922 6.515 5.378 0 13.095-9.805 17.587-18.219a3995 3995 0 0 1 11.957-26.19c.316-.632-.317-.632-.886-.632m136.24 1.138c-6.262-2.53-14.36 9.552-20.94 21.826S588.6 323.28 594.293 326c5.947 3.1 13.728-10.312 20.307-22.585 6.58-12.336 11.64-27.708 6.264-29.606M435.619 63.584l18.536-16.32 20.876 12.715-9.805-22.901 18.473-16.638-24.483 2.214L449.98.387l-5.693 23.596-24.23 2.404 21.255 12.905zm457.73 209.808-2.972 24.293 17.017-18.347 22.71 10.123-12.272-21.573 16.448-17.523-23.597 4.744-12.272-21.572-2.973 24.8-24.167 4.744zM200.78 145.845l8.666 23.344 6.264-23.724 24.799-.76-20.876-13.789 6.516-24.104-19.422 15.247-19.992-13.412 8.351 22.648-19.104 15.182zm708.406 192.29 20.306 14.235-7.781 23.407 20.053-14.804 20.308 14.297-7.781-23.596 19.737-14.106-24.23.188-7.78-23.343-7.718 23.66zm52.285 198.781 13.474 20.814 1.772-24.61 23.28-5.82-22.394-8.856 1.518-24.609-16.133 19.17-23.027-9.427 13.16 20.624-15.88 18.977zM780.409 142.732l6.262 23.723 8.983-23.218 24.8.696-19.107-15.436 8.667-22.52-20.37 13.284-19.104-15.373 6.262 24.23-20.876 13.538zm188.83 259.67-12.273 21.763-24.483-4.746 17.017 17.903-11.956 21.32 22.459-10.565 17.333 17.84-3.037-24.61 22.143-10.12-23.914-4.429zm-149.988-205.5 23.914 5.631 1.77 24.546 12.843-21.194 24.23 5.504-15.817-18.852 12.843-20.433-22.459 9.173-15.814-18.662 1.517 24.925zM273.378 95.109l3.859 24.61 11.07-22.08 24.23 3.922-17.65-17.46 10.755-22.394-21.827 11.324L266.8 55.886l3.922 23.849-21.826 11.387zm246.797-35.705 21.193-12.463L559.587 63.2l-5.378-24.23 21.256-12.715-24.545-2.531L545.86 0l-9.552 22.206-24.483-2.342 18.536 16.702zM707.506 95.59l10.754 21.95 4.176-24.354 24.482-3.987-21.762-11.513 4.176-23.723-17.334 16.953-21.826-11.45 11.07 22.585-17.965 17.27zM603.832 71.472l23.28-8.288 14.677 19.739-.632-24.99 23.343-8.475-23.596-7.15-.316-24.165-14.044 19.927-23.28-7.086 14.93 20.054ZM353.759 84.08l14.614-19.548 23.342 8.35-14.044-20.496 14.93-19.864-23.912 6.833-13.414-19.99-.632 24.167-23.597 6.895 23.28 8.73z"/>
    </g>
</svg>
